# xmcd
#
# Track frame offsets:
#	150
#	12511
#	28704
#	43251
#	58002
#	73387
#	85468
#	99537
#	116922
#	134122
#	150717
#
# Disc length: 2242 seconds
#
# Revision: 1
# Processed by: cddbd v1.4PL0 Copyright (c) Steve Scherf et al.
# Submitted via: audiograbber 1.80
#
DISCID=a808c00b
DTITLE=The Rochesters - Brighter Day
DYEAR=1900
DGENRE=
TTITLE0=Wake The Town
TTITLE1=Brighter Day
TTITLE2=Noone Else
TTITLE3=Are You Afraid To Die
TTITLE4=I'll Be There
TTITLE5=Way Down
TTITLE6=I Can Stand The Stones
TTITLE7=Should We Neglect The Cause
TTITLE8=Living By Faith
TTITLE9=In God's Hands
TTITLE10=Gathering Jewels
EXTD=Gospel Music
EXTT0=
EXTT1=
EXTT2=
EXTT3=
EXTT4=
EXTT5=
EXTT6=
EXTT7=
EXTT8=
EXTT9=
EXTT10=
PLAYORDER=
